<svg xmlns="http://www.w3.org/2000/svg" xmlns:v="https://svgstorm.com"
viewBox = "0 0 489 529"
width="489"
height="529">
<g fill="None" fill-opacity="0.0" stroke="#FEFEFE" stroke-opacity="1.00" stroke-width="0.3"><path d="
M 0.00 529.00 
L 489.00 529.00
L 489.00 0.00
L 0.00 0.00
L 0.00 529.00
M 438.00 191.00 
C 431.88 175.33 416.82 166.09 407.00 153.00
C 416.44 162.71 425.73 168.16 433.25 178.75 C 440.78 189.33 446.34 199.24 450.78 212.22 C 455.21 225.20 455.01 238.88 455.07 253.07 C 455.13 267.27 452.24 283.08 446.68 295.68 C 441.12 308.27 435.54 317.91 426.75 327.75 C 417.96 337.59 413.90 348.98 405.29 357.30 C 396.68 365.63 392.72 376.81 383.30 384.30 C 373.87 391.79 369.19 405.62 359.00 413.00
C 355.54 417.75 351.81 421.63 348.00 426.00
C 345.55 429.80 342.67 433.40 340.00 437.00
C 332.65 446.89 322.51 457.76 312.00 464.00
C 294.52 474.38 276.50 482.20 256.00 484.00
C 249.07 485.41 239.86 485.45 233.00 484.00
C 220.20 482.80 207.12 477.85 195.31 473.69 C 183.49 469.54 176.43 461.35 166.00 455.00
C 165.36 454.61 164.61 454.37 164.00 454.00
C 150.51 445.78 139.07 429.07 128.00 418.00
C 122.84 413.59 118.10 408.36 113.00 404.00
C 106.21 398.20 100.24 391.23 94.00 385.00
C 88.07 379.07 81.19 373.57 76.00 367.00
C 62.04 349.32 57.29 331.50 50.00 311.00
C 48.51 306.81 48.00 303.00 48.00 298.00
C 48.00 290.94 47.98 283.31 49.00 277.00
C 49.86 261.22 55.70 244.82 63.00 231.00
C 64.56 223.96 69.44 219.40 74.30 212.30 C 79.16 205.21 83.82 201.13 88.25 194.25 C 92.68 187.37 97.07 182.34 100.92 176.92 C 104.76 171.49 114.19 162.03 112.00 157.00
C 118.82 156.77 126.55 146.47 128.00 139.00
C 135.85 133.70 140.05 123.61 147.75 115.75 C 155.45 107.90 159.94 98.18 167.70 90.70 C 175.46 83.22 182.60 74.18 193.00 70.00
C 191.65 72.48 188.00 73.06 187.00 76.00
C 216.15 56.00 262.22 47.55 294.68 60.32 C 327.14 73.09 348.54 95.67 371.75 120.25 C 394.97 144.83 421.60 162.97 438.00 191.00
M 393.00 139.00 
C 368.76 117.22 343.49 91.04 319.00 69.00
C 346.66 87.75 368.00 114.11 393.00 139.00 Z"/>
</g>
<g fill="None" fill-opacity="0.0" stroke="#26C7CB" stroke-opacity="1.00" stroke-width="0.3"><path d="
M 187.00 76.00 
C 184.98 77.38 182.91 78.63 181.00 80.00
C 167.99 90.90 157.55 105.76 148.00 119.00
C 145.03 125.36 139.77 136.13 141.00 144.00
C 127.56 164.40 127.73 194.29 135.00 217.00
C 133.88 187.57 155.31 163.23 183.67 156.67 C 212.04 150.12 240.81 169.57 258.75 190.25 C 276.69 210.92 295.76 225.39 313.75 245.25 C 331.75 265.10 355.33 280.71 363.00 306.00
C 363.04 305.65 363.66 305.01 364.00 305.00
C 369.21 304.91 366.09 313.61 369.33 316.67 C 372.56 319.74 371.96 326.55 373.00 331.00 C 374.03 335.45 372.62 342.47 374.00 347.00 C 375.38 351.53 378.46 356.10 376.02 361.02 C 373.59 365.95 375.81 370.48 373.07 375.07 C 370.33 379.67 374.96 385.21 371.08 389.08 C 367.19 392.94 367.81 396.92 367.00 401.00
C 371.66 394.74 376.81 388.07 382.00 382.00
C 404.33 355.87 420.34 333.67 439.31 304.31 C 458.27 274.94 455.91 226.02 440.00 195.00
C 439.31 193.66 438.76 192.29 438.00 191.00
C 421.60 162.97 394.97 144.83 371.75 120.25 C 348.54 95.67 327.14 73.09 294.68 60.32 C 262.22 47.55 216.15 56.00 187.00 76.00 Z"/>
</g>
<g fill="None" fill-opacity="0.0" stroke="#E7FEFE" stroke-opacity="1.00" stroke-width="0.3"><path d="
M 393.00 139.00 
C 368.00 114.11 346.66 87.75 319.00 69.00
C 343.49 91.04 368.76 117.22 393.00 139.00 Z"/>
</g>
<g fill="None" fill-opacity="0.0" stroke="#DAF0FA" stroke-opacity="1.00" stroke-width="0.3"><path d="
M 63.00 231.00 
C 72.21 213.57 87.95 199.68 99.25 183.25 C 110.55 166.82 124.40 151.08 136.00 135.00
C 138.59 131.41 141.01 127.06 144.00 124.00
C 143.77 123.66 144.00 123.00 144.00 123.00
C 145.90 114.36 156.63 107.80 161.25 100.25 C 165.87 92.70 173.71 85.21 181.00 80.00
C 182.91 78.63 184.98 77.38 187.00 76.00
C 188.00 73.06 191.65 72.48 193.00 70.00
C 182.60 74.18 175.46 83.22 167.70 90.70 C 159.94 98.18 155.45 107.90 147.75 115.75 C 140.05 123.61 135.85 133.70 128.00 139.00
C 126.55 146.47 118.82 156.77 112.00 157.00
C 114.19 162.03 104.76 171.49 100.92 176.92 C 97.07 182.34 92.68 187.37 88.25 194.25 C 83.82 201.13 79.16 205.21 74.30 212.30 C 69.44 219.40 64.56 223.96 63.00 231.00 Z"/>
</g>
<g fill="None" fill-opacity="0.0" stroke="#BBF8F9" stroke-opacity="1.00" stroke-width="0.3"><path d="
M 144.00 123.00 
C 145.68 121.90 146.95 120.45 148.00 119.00
C 157.55 105.76 167.99 90.90 181.00 80.00
C 173.71 85.21 165.87 92.70 161.25 100.25 C 156.63 107.80 145.90 114.36 144.00 123.00 Z"/>
</g>
<g fill="None" fill-opacity="0.0" stroke="#3AB6D2" stroke-opacity="1.00" stroke-width="0.3"><path d="
M 144.00 123.00 
C 144.00 123.00 143.77 123.66 144.00 124.00
C 145.54 126.21 139.15 134.42 138.00 137.00
C 132.83 148.57 129.02 163.19 128.00 176.00
C 127.48 182.50 127.75 189.48 128.00 196.00
C 128.50 208.97 131.75 221.76 137.00 233.00
C 135.81 227.90 135.20 222.32 135.00 217.00
C 127.73 194.29 127.56 164.40 141.00 144.00
C 139.77 136.13 145.03 125.36 148.00 119.00
C 146.95 120.45 145.68 121.90 144.00 123.00 Z"/>
</g>
<g fill="None" fill-opacity="0.0" stroke="#2D7594" stroke-opacity="1.00" stroke-width="0.3"><path d="
M 136.00 135.00 
C 136.94 134.29 137.95 133.48 139.00 133.00
C 139.37 134.54 137.57 135.40 138.00 137.00
C 139.15 134.42 145.54 126.21 144.00 124.00
C 141.01 127.06 138.59 131.41 136.00 135.00 Z"/>
</g>
<g fill="None" fill-opacity="0.0" stroke="#205ABE" stroke-opacity="1.00" stroke-width="0.3"><path d="
M 136.00 135.00 
C 124.40 151.08 110.55 166.82 99.25 183.25 C 87.95 199.68 72.21 213.57 63.00 231.00
C 55.70 244.82 49.86 261.22 49.00 277.00
C 48.63 283.89 48.74 291.10 49.00 298.00
C 49.16 302.31 49.29 306.72 50.00 311.00
C 57.29 331.50 62.04 349.32 76.00 367.00
C 81.60 373.06 88.19 379.19 94.00 385.00
C 100.25 391.25 106.80 397.80 113.00 404.00
C 118.10 408.36 122.84 413.59 128.00 418.00
C 138.16 426.68 146.89 437.36 157.00 446.00
C 160.24 448.77 163.06 452.06 166.00 455.00
C 176.43 461.35 183.49 469.54 195.31 473.69 C 207.12 477.85 220.20 482.80 233.00 484.00
C 240.25 484.68 248.75 484.64 256.00 484.00
C 276.50 482.20 294.52 474.38 312.00 464.00
C 321.88 456.66 331.85 446.35 340.00 437.00
C 342.67 433.40 345.55 429.80 348.00 426.00
C 350.48 422.16 353.50 418.79 356.00 415.00
C 374.03 387.61 376.71 347.14 367.00 316.00
C 366.94 316.70 366.08 318.68 366.00 320.00
C 365.81 323.31 365.25 327.39 365.00 330.00
C 365.00 353.30 349.01 372.56 326.92 380.92 C 304.84 389.29 275.82 381.23 258.00 366.00
C 232.12 343.89 210.83 316.07 185.00 294.00
C 174.53 285.05 159.15 272.74 152.00 261.00
C 151.63 260.39 151.37 259.55 151.00 259.00
C 147.76 254.27 144.59 250.07 142.00 245.00
C 139.97 241.02 138.86 236.98 137.00 233.00
C 131.75 221.76 128.50 208.97 128.00 196.00
C 127.10 189.72 126.80 182.24 128.00 176.00
C 129.02 163.19 132.83 148.57 138.00 137.00
C 137.57 135.40 139.37 134.54 139.00 133.00
C 137.95 133.48 136.94 134.29 136.00 135.00 Z"/>
</g>
<g fill="None" fill-opacity="0.0" stroke="#E8FEFE" stroke-opacity="1.00" stroke-width="0.3"><path d="
M 438.00 191.00 
C 438.76 192.29 439.31 193.66 440.00 195.00
C 458.63 223.75 459.66 275.24 441.23 304.23 C 422.80 333.22 406.21 357.79 382.00 382.00
C 376.81 388.07 371.66 394.74 367.00 401.00
C 365.63 402.84 364.27 405.07 363.00 407.00
C 361.67 409.02 360.43 411.04 359.00 413.00
C 369.19 405.62 373.87 391.79 383.30 384.30 C 392.72 376.81 396.68 365.63 405.29 357.30 C 413.90 348.98 417.96 337.59 426.75 327.75 C 435.54 317.91 441.12 308.27 446.68 295.68 C 452.24 283.08 455.13 267.27 455.07 253.07 C 455.01 238.88 455.21 225.20 450.78 212.22 C 446.34 199.24 440.78 189.33 433.25 178.75 C 425.73 168.16 416.44 162.71 407.00 153.00
C 416.82 166.09 431.88 175.33 438.00 191.00 Z"/>
</g>
<g fill="None" fill-opacity="0.0" stroke="#D7FBFC" stroke-opacity="1.00" stroke-width="0.3"><path d="
M 135.00 217.00 
C 135.20 222.32 135.81 227.90 137.00 233.00
C 138.86 236.98 139.97 241.02 142.00 245.00
C 137.36 224.88 134.66 200.96 148.32 183.32 C 161.98 165.68 180.20 155.35 203.00 158.00 C 225.80 160.65 237.39 174.38 252.30 187.70 C 267.21 201.01 278.47 214.47 292.30 227.70 C 306.14 240.93 318.53 254.12 332.30 267.70 C 346.08 281.27 360.73 296.65 365.00 316.00
C 364.86 312.64 363.97 309.18 363.00 306.00
C 355.33 280.71 331.75 265.10 313.75 245.25 C 295.76 225.39 276.69 210.92 258.75 190.25 C 240.81 169.57 212.04 150.12 183.67 156.67 C 155.31 163.23 133.88 187.57 135.00 217.00 Z"/>
</g>
<g fill="None" fill-opacity="0.0" stroke="#FDFEFE" stroke-opacity="1.00" stroke-width="0.3"><path d="
M 142.00 245.00 
C 144.59 250.07 147.76 254.27 151.00 259.00
C 184.23 294.94 222.15 330.16 258.00 366.00
C 275.82 381.23 304.84 389.29 326.92 380.92 C 349.01 372.56 365.00 353.30 365.00 330.00
C 365.00 326.67 365.00 323.33 365.00 320.00
C 365.00 318.67 365.06 317.33 365.00 316.00
C 360.73 296.65 346.08 281.27 332.30 267.70 C 318.53 254.12 306.14 240.93 292.30 227.70 C 278.47 214.47 267.21 201.01 252.30 187.70 C 237.39 174.38 225.80 160.65 203.00 158.00 C 180.20 155.35 161.98 165.68 148.32 183.32 C 134.66 200.96 137.36 224.88 142.00 245.00 Z"/>
</g>
<g fill="None" fill-opacity="0.0" stroke="#167FBA" stroke-opacity="1.00" stroke-width="0.3"><path d="
M 128.00 196.00 
C 127.75 189.48 127.48 182.50 128.00 176.00
C 126.80 182.24 127.10 189.72 128.00 196.00 Z"/>
</g>
<g fill="None" fill-opacity="0.0" stroke="#C5F9F9" stroke-opacity="1.00" stroke-width="0.3"><path d="
M 382.00 382.00 
C 406.21 357.79 422.80 333.22 441.23 304.23 C 459.66 275.24 458.63 223.75 440.00 195.00
C 455.91 226.02 458.27 274.94 439.31 304.31 C 420.34 333.67 404.33 355.87 382.00 382.00 Z"/>
</g>
<g fill="None" fill-opacity="0.0" stroke="#C8E1FB" stroke-opacity="1.00" stroke-width="0.3"><path d="
M 152.00 261.00 
C 162.45 272.21 174.20 283.20 185.00 294.00
C 210.83 316.07 232.12 343.89 258.00 366.00
C 222.15 330.16 184.23 294.94 151.00 259.00
C 151.37 259.55 151.63 260.39 152.00 261.00 Z"/>
</g>
<g fill="None" fill-opacity="0.0" stroke="#6B8AB5" stroke-opacity="1.00" stroke-width="0.3"><path d="
M 185.00 294.00 
C 174.20 283.20 162.45 272.21 152.00 261.00
C 159.15 272.74 174.53 285.05 185.00 294.00 Z"/>
</g>
<g fill="None" fill-opacity="0.0" stroke="#93AED4" stroke-opacity="1.00" stroke-width="0.3"><path d="
M 48.00 298.00 
C 48.00 297.96 49.00 298.00 49.00 298.00
C 48.74 291.10 48.63 283.89 49.00 277.00
C 47.98 283.31 48.00 290.94 48.00 298.00 Z"/>
</g>
<g fill="None" fill-opacity="0.0" stroke="#C3DCF1" stroke-opacity="1.00" stroke-width="0.3"><path d="
M 50.00 311.00 
C 49.29 306.72 49.16 302.31 49.00 298.00
C 49.00 298.00 48.00 297.96 48.00 298.00
C 48.00 303.00 48.51 306.81 50.00 311.00 Z"/>
</g>
<g fill="None" fill-opacity="0.0" stroke="#3D869D" stroke-opacity="1.00" stroke-width="0.3"><path d="
M 363.00 306.00 
C 363.97 309.18 364.86 312.64 365.00 316.00
C 365.06 317.33 365.00 318.67 365.00 320.00
C 365.13 320.22 366.00 320.00 366.00 320.00
C 366.08 318.68 366.94 316.70 367.00 316.00
C 365.99 312.77 365.86 307.87 364.00 305.00
C 363.66 305.01 363.04 305.65 363.00 306.00 Z"/>
</g>
<g fill="None" fill-opacity="0.0" stroke="#37B5D3" stroke-opacity="1.00" stroke-width="0.3"><path d="
M 367.00 316.00 
C 376.71 347.14 374.03 387.61 356.00 415.00
C 358.15 412.39 360.88 409.58 363.00 407.00
C 364.27 405.07 365.63 402.84 367.00 401.00
C 367.81 396.92 367.19 392.94 371.08 389.08 C 374.96 385.21 370.33 379.67 373.07 375.07 C 375.81 370.48 373.59 365.95 376.02 361.02 C 378.46 356.10 375.38 351.53 374.00 347.00 C 372.62 342.47 374.03 335.45 373.00 331.00 C 371.96 326.55 372.56 319.74 369.33 316.67 C 366.09 313.61 369.21 304.91 364.00 305.00
C 365.86 307.87 365.99 312.77 367.00 316.00 Z"/>
</g>
<g fill="None" fill-opacity="0.0" stroke="#96B6D9" stroke-opacity="1.00" stroke-width="0.3"><path d="
M 365.00 330.00 
C 365.25 327.39 365.81 323.31 366.00 320.00
C 366.00 320.00 365.13 320.22 365.00 320.00
C 365.00 323.33 365.00 326.67 365.00 330.00 Z"/>
</g>
<g fill="None" fill-opacity="0.0" stroke="#718FBC" stroke-opacity="1.00" stroke-width="0.3"><path d="
M 94.00 385.00 
C 88.19 379.19 81.60 373.06 76.00 367.00
C 81.19 373.57 88.07 379.07 94.00 385.00 Z"/>
</g>
<g fill="None" fill-opacity="0.0" stroke="#9FBCDE" stroke-opacity="1.00" stroke-width="0.3"><path d="
M 113.00 404.00 
C 106.80 397.80 100.25 391.25 94.00 385.00
C 100.24 391.23 106.21 398.20 113.00 404.00 Z"/>
</g>
<g fill="None" fill-opacity="0.0" stroke="#A6CAE6" stroke-opacity="1.00" stroke-width="0.3"><path d="
M 356.00 415.00 
C 353.50 418.79 350.48 422.16 348.00 426.00
C 351.81 421.63 355.54 417.75 359.00 413.00
C 360.43 411.04 361.67 409.02 363.00 407.00
C 360.88 409.58 358.15 412.39 356.00 415.00 Z"/>
</g>
<g fill="None" fill-opacity="0.0" stroke="#A1BDE1" stroke-opacity="1.00" stroke-width="0.3"><path d="
M 164.00 454.00 
C 161.51 451.68 159.36 448.36 157.00 446.00
C 146.89 437.36 138.16 426.68 128.00 418.00
C 139.07 429.07 150.51 445.78 164.00 454.00 Z"/>
</g>
<g fill="None" fill-opacity="0.0" stroke="#95B3D7" stroke-opacity="1.00" stroke-width="0.3"><path d="
M 312.00 464.00 
C 322.51 457.76 332.65 446.89 340.00 437.00
C 331.85 446.35 321.88 456.66 312.00 464.00 Z"/>
</g>
<g fill="None" fill-opacity="0.0" stroke="#5D7EAC" stroke-opacity="1.00" stroke-width="0.3"><path d="
M 164.00 454.00 
C 164.61 454.37 165.36 454.61 166.00 455.00
C 163.06 452.06 160.24 448.77 157.00 446.00
C 159.36 448.36 161.51 451.68 164.00 454.00 Z"/>
</g>
<g fill="None" fill-opacity="0.0" stroke="#C4DDF6" stroke-opacity="1.00" stroke-width="0.3"><path d="
M 256.00 484.00 
C 248.75 484.64 240.25 484.68 233.00 484.00
C 239.86 485.45 249.07 485.41 256.00 484.00 Z"/>
</g>
<g fill="#FEFEFE" fill-opacity="1.00" stroke="None">
<path d="
M 0.00 529.00 
L 489.00 529.00
L 489.00 0.00
L 0.00 0.00
L 0.00 529.00
M 438.00 191.00 
C 431.88 175.33 416.82 166.09 407.00 153.00
C 416.44 162.71 425.73 168.16 433.25 178.75 C 440.78 189.33 446.34 199.24 450.78 212.22 C 455.21 225.20 455.01 238.88 455.07 253.07 C 455.13 267.27 452.24 283.08 446.68 295.68 C 441.12 308.27 435.54 317.91 426.75 327.75 C 417.96 337.59 413.90 348.98 405.29 357.30 C 396.68 365.63 392.72 376.81 383.30 384.30 C 373.87 391.79 369.19 405.62 359.00 413.00
C 355.54 417.75 351.81 421.63 348.00 426.00
C 345.55 429.80 342.67 433.40 340.00 437.00
C 332.65 446.89 322.51 457.76 312.00 464.00
C 294.52 474.38 276.50 482.20 256.00 484.00
C 249.07 485.41 239.86 485.45 233.00 484.00
C 220.20 482.80 207.12 477.85 195.31 473.69 C 183.49 469.54 176.43 461.35 166.00 455.00
C 165.36 454.61 164.61 454.37 164.00 454.00
C 150.51 445.78 139.07 429.07 128.00 418.00
C 122.84 413.59 118.10 408.36 113.00 404.00
C 106.21 398.20 100.24 391.23 94.00 385.00
C 88.07 379.07 81.19 373.57 76.00 367.00
C 62.04 349.32 57.29 331.50 50.00 311.00
C 48.51 306.81 48.00 303.00 48.00 298.00
C 48.00 290.94 47.98 283.31 49.00 277.00
C 49.86 261.22 55.70 244.82 63.00 231.00
C 64.56 223.96 69.44 219.40 74.30 212.30 C 79.16 205.21 83.82 201.13 88.25 194.25 C 92.68 187.37 97.07 182.34 100.92 176.92 C 104.76 171.49 114.19 162.03 112.00 157.00
C 118.82 156.77 126.55 146.47 128.00 139.00
C 135.85 133.70 140.05 123.61 147.75 115.75 C 155.45 107.90 159.94 98.18 167.70 90.70 C 175.46 83.22 182.60 74.18 193.00 70.00
C 191.65 72.48 188.00 73.06 187.00 76.00
C 216.15 56.00 262.22 47.55 294.68 60.32 C 327.14 73.09 348.54 95.67 371.75 120.25 C 394.97 144.83 421.60 162.97 438.00 191.00
M 393.00 139.00 
C 368.76 117.22 343.49 91.04 319.00 69.00
C 346.66 87.75 368.00 114.11 393.00 139.00 Z"/>
</g>
<g fill="#26C7CB" fill-opacity="1.00" stroke="None">
<path d="
M 187.00 76.00 
C 184.98 77.38 182.91 78.63 181.00 80.00
C 167.99 90.90 157.55 105.76 148.00 119.00
C 145.03 125.36 139.77 136.13 141.00 144.00
C 127.56 164.40 127.73 194.29 135.00 217.00
C 133.88 187.57 155.31 163.23 183.67 156.67 C 212.04 150.12 240.81 169.57 258.75 190.25 C 276.69 210.92 295.76 225.39 313.75 245.25 C 331.75 265.10 355.33 280.71 363.00 306.00
C 363.04 305.65 363.66 305.01 364.00 305.00
C 369.21 304.91 366.09 313.61 369.33 316.67 C 372.56 319.74 371.96 326.55 373.00 331.00 C 374.03 335.45 372.62 342.47 374.00 347.00 C 375.38 351.53 378.46 356.10 376.02 361.02 C 373.59 365.95 375.81 370.48 373.07 375.07 C 370.33 379.67 374.96 385.21 371.08 389.08 C 367.19 392.94 367.81 396.92 367.00 401.00
C 371.66 394.74 376.81 388.07 382.00 382.00
C 404.33 355.87 420.34 333.67 439.31 304.31 C 458.27 274.94 455.91 226.02 440.00 195.00
C 439.31 193.66 438.76 192.29 438.00 191.00
C 421.60 162.97 394.97 144.83 371.75 120.25 C 348.54 95.67 327.14 73.09 294.68 60.32 C 262.22 47.55 216.15 56.00 187.00 76.00 Z"/>
</g>
<g fill="#E7FEFE" fill-opacity="1.00" stroke="None">
<path d="
M 393.00 139.00 
C 368.00 114.11 346.66 87.75 319.00 69.00
C 343.49 91.04 368.76 117.22 393.00 139.00 Z"/>
</g>
<g fill="#DAF0FA" fill-opacity="1.00" stroke="None">
<path d="
M 63.00 231.00 
C 72.21 213.57 87.95 199.68 99.25 183.25 C 110.55 166.82 124.40 151.08 136.00 135.00
C 138.59 131.41 141.01 127.06 144.00 124.00
C 143.77 123.66 144.00 123.00 144.00 123.00
C 145.90 114.36 156.63 107.80 161.25 100.25 C 165.87 92.70 173.71 85.21 181.00 80.00
C 182.91 78.63 184.98 77.38 187.00 76.00
C 188.00 73.06 191.65 72.48 193.00 70.00
C 182.60 74.18 175.46 83.22 167.70 90.70 C 159.94 98.18 155.45 107.90 147.75 115.75 C 140.05 123.61 135.85 133.70 128.00 139.00
C 126.55 146.47 118.82 156.77 112.00 157.00
C 114.19 162.03 104.76 171.49 100.92 176.92 C 97.07 182.34 92.68 187.37 88.25 194.25 C 83.82 201.13 79.16 205.21 74.30 212.30 C 69.44 219.40 64.56 223.96 63.00 231.00 Z"/>
</g>
<g fill="#BBF8F9" fill-opacity="1.00" stroke="None">
<path d="
M 144.00 123.00 
C 145.68 121.90 146.95 120.45 148.00 119.00
C 157.55 105.76 167.99 90.90 181.00 80.00
C 173.71 85.21 165.87 92.70 161.25 100.25 C 156.63 107.80 145.90 114.36 144.00 123.00 Z"/>
</g>
<g fill="#3AB6D2" fill-opacity="1.00" stroke="None">
<path d="
M 144.00 123.00 
C 144.00 123.00 143.77 123.66 144.00 124.00
C 145.54 126.21 139.15 134.42 138.00 137.00
C 132.83 148.57 129.02 163.19 128.00 176.00
C 127.48 182.50 127.75 189.48 128.00 196.00
C 128.50 208.97 131.75 221.76 137.00 233.00
C 135.81 227.90 135.20 222.32 135.00 217.00
C 127.73 194.29 127.56 164.40 141.00 144.00
C 139.77 136.13 145.03 125.36 148.00 119.00
C 146.95 120.45 145.68 121.90 144.00 123.00 Z"/>
</g>
<g fill="#2D7594" fill-opacity="1.00" stroke="None">
<path d="
M 136.00 135.00 
C 136.94 134.29 137.95 133.48 139.00 133.00
C 139.37 134.54 137.57 135.40 138.00 137.00
C 139.15 134.42 145.54 126.21 144.00 124.00
C 141.01 127.06 138.59 131.41 136.00 135.00 Z"/>
</g>
<g fill="#205ABE" fill-opacity="1.00" stroke="None">
<path d="
M 136.00 135.00 
C 124.40 151.08 110.55 166.82 99.25 183.25 C 87.95 199.68 72.21 213.57 63.00 231.00
C 55.70 244.82 49.86 261.22 49.00 277.00
C 48.63 283.89 48.74 291.10 49.00 298.00
C 49.16 302.31 49.29 306.72 50.00 311.00
C 57.29 331.50 62.04 349.32 76.00 367.00
C 81.60 373.06 88.19 379.19 94.00 385.00
C 100.25 391.25 106.80 397.80 113.00 404.00
C 118.10 408.36 122.84 413.59 128.00 418.00
C 138.16 426.68 146.89 437.36 157.00 446.00
C 160.24 448.77 163.06 452.06 166.00 455.00
C 176.43 461.35 183.49 469.54 195.31 473.69 C 207.12 477.85 220.20 482.80 233.00 484.00
C 240.25 484.68 248.75 484.64 256.00 484.00
C 276.50 482.20 294.52 474.38 312.00 464.00
C 321.88 456.66 331.85 446.35 340.00 437.00
C 342.67 433.40 345.55 429.80 348.00 426.00
C 350.48 422.16 353.50 418.79 356.00 415.00
C 374.03 387.61 376.71 347.14 367.00 316.00
C 366.94 316.70 366.08 318.68 366.00 320.00
C 365.81 323.31 365.25 327.39 365.00 330.00
C 365.00 353.30 349.01 372.56 326.92 380.92 C 304.84 389.29 275.82 381.23 258.00 366.00
C 232.12 343.89 210.83 316.07 185.00 294.00
C 174.53 285.05 159.15 272.74 152.00 261.00
C 151.63 260.39 151.37 259.55 151.00 259.00
C 147.76 254.27 144.59 250.07 142.00 245.00
C 139.97 241.02 138.86 236.98 137.00 233.00
C 131.75 221.76 128.50 208.97 128.00 196.00
C 127.10 189.72 126.80 182.24 128.00 176.00
C 129.02 163.19 132.83 148.57 138.00 137.00
C 137.57 135.40 139.37 134.54 139.00 133.00
C 137.95 133.48 136.94 134.29 136.00 135.00 Z"/>
</g>
<g fill="#E8FEFE" fill-opacity="1.00" stroke="None">
<path d="
M 438.00 191.00 
C 438.76 192.29 439.31 193.66 440.00 195.00
C 458.63 223.75 459.66 275.24 441.23 304.23 C 422.80 333.22 406.21 357.79 382.00 382.00
C 376.81 388.07 371.66 394.74 367.00 401.00
C 365.63 402.84 364.27 405.07 363.00 407.00
C 361.67 409.02 360.43 411.04 359.00 413.00
C 369.19 405.62 373.87 391.79 383.30 384.30 C 392.72 376.81 396.68 365.63 405.29 357.30 C 413.90 348.98 417.96 337.59 426.75 327.75 C 435.54 317.91 441.12 308.27 446.68 295.68 C 452.24 283.08 455.13 267.27 455.07 253.07 C 455.01 238.88 455.21 225.20 450.78 212.22 C 446.34 199.24 440.78 189.33 433.25 178.75 C 425.73 168.16 416.44 162.71 407.00 153.00
C 416.82 166.09 431.88 175.33 438.00 191.00 Z"/>
</g>
<g fill="#D7FBFC" fill-opacity="1.00" stroke="None">
<path d="
M 135.00 217.00 
C 135.20 222.32 135.81 227.90 137.00 233.00
C 138.86 236.98 139.97 241.02 142.00 245.00
C 137.36 224.88 134.66 200.96 148.32 183.32 C 161.98 165.68 180.20 155.35 203.00 158.00 C 225.80 160.65 237.39 174.38 252.30 187.70 C 267.21 201.01 278.47 214.47 292.30 227.70 C 306.14 240.93 318.53 254.12 332.30 267.70 C 346.08 281.27 360.73 296.65 365.00 316.00
C 364.86 312.64 363.97 309.18 363.00 306.00
C 355.33 280.71 331.75 265.10 313.75 245.25 C 295.76 225.39 276.69 210.92 258.75 190.25 C 240.81 169.57 212.04 150.12 183.67 156.67 C 155.31 163.23 133.88 187.57 135.00 217.00 Z"/>
</g>
<g fill="#FDFEFE" fill-opacity="1.00" stroke="None">
<path d="
M 142.00 245.00 
C 144.59 250.07 147.76 254.27 151.00 259.00
C 184.23 294.94 222.15 330.16 258.00 366.00
C 275.82 381.23 304.84 389.29 326.92 380.92 C 349.01 372.56 365.00 353.30 365.00 330.00
C 365.00 326.67 365.00 323.33 365.00 320.00
C 365.00 318.67 365.06 317.33 365.00 316.00
C 360.73 296.65 346.08 281.27 332.30 267.70 C 318.53 254.12 306.14 240.93 292.30 227.70 C 278.47 214.47 267.21 201.01 252.30 187.70 C 237.39 174.38 225.80 160.65 203.00 158.00 C 180.20 155.35 161.98 165.68 148.32 183.32 C 134.66 200.96 137.36 224.88 142.00 245.00 Z"/>
</g>
<g fill="#167FBA" fill-opacity="1.00" stroke="None">
<path d="
M 128.00 196.00 
C 127.75 189.48 127.48 182.50 128.00 176.00
C 126.80 182.24 127.10 189.72 128.00 196.00 Z"/>
</g>
<g fill="#C5F9F9" fill-opacity="1.00" stroke="None">
<path d="
M 382.00 382.00 
C 406.21 357.79 422.80 333.22 441.23 304.23 C 459.66 275.24 458.63 223.75 440.00 195.00
C 455.91 226.02 458.27 274.94 439.31 304.31 C 420.34 333.67 404.33 355.87 382.00 382.00 Z"/>
</g>
<g fill="#C8E1FB" fill-opacity="1.00" stroke="None">
<path d="
M 152.00 261.00 
C 162.45 272.21 174.20 283.20 185.00 294.00
C 210.83 316.07 232.12 343.89 258.00 366.00
C 222.15 330.16 184.23 294.94 151.00 259.00
C 151.37 259.55 151.63 260.39 152.00 261.00 Z"/>
</g>
<g fill="#6B8AB5" fill-opacity="1.00" stroke="None">
<path d="
M 185.00 294.00 
C 174.20 283.20 162.45 272.21 152.00 261.00
C 159.15 272.74 174.53 285.05 185.00 294.00 Z"/>
</g>
<g fill="#93AED4" fill-opacity="1.00" stroke="None">
<path d="
M 48.00 298.00 
C 48.00 297.96 49.00 298.00 49.00 298.00
C 48.74 291.10 48.63 283.89 49.00 277.00
C 47.98 283.31 48.00 290.94 48.00 298.00 Z"/>
</g>
<g fill="#C3DCF1" fill-opacity="1.00" stroke="None">
<path d="
M 50.00 311.00 
C 49.29 306.72 49.16 302.31 49.00 298.00
C 49.00 298.00 48.00 297.96 48.00 298.00
C 48.00 303.00 48.51 306.81 50.00 311.00 Z"/>
</g>
<g fill="#3D869D" fill-opacity="1.00" stroke="None">
<path d="
M 363.00 306.00 
C 363.97 309.18 364.86 312.64 365.00 316.00
C 365.06 317.33 365.00 318.67 365.00 320.00
C 365.13 320.22 366.00 320.00 366.00 320.00
C 366.08 318.68 366.94 316.70 367.00 316.00
C 365.99 312.77 365.86 307.87 364.00 305.00
C 363.66 305.01 363.04 305.65 363.00 306.00 Z"/>
</g>
<g fill="#37B5D3" fill-opacity="1.00" stroke="None">
<path d="
M 367.00 316.00 
C 376.71 347.14 374.03 387.61 356.00 415.00
C 358.15 412.39 360.88 409.58 363.00 407.00
C 364.27 405.07 365.63 402.84 367.00 401.00
C 367.81 396.92 367.19 392.94 371.08 389.08 C 374.96 385.21 370.33 379.67 373.07 375.07 C 375.81 370.48 373.59 365.95 376.02 361.02 C 378.46 356.10 375.38 351.53 374.00 347.00 C 372.62 342.47 374.03 335.45 373.00 331.00 C 371.96 326.55 372.56 319.74 369.33 316.67 C 366.09 313.61 369.21 304.91 364.00 305.00
C 365.86 307.87 365.99 312.77 367.00 316.00 Z"/>
</g>
<g fill="#96B6D9" fill-opacity="1.00" stroke="None">
<path d="
M 365.00 330.00 
C 365.25 327.39 365.81 323.31 366.00 320.00
C 366.00 320.00 365.13 320.22 365.00 320.00
C 365.00 323.33 365.00 326.67 365.00 330.00 Z"/>
</g>
<g fill="#718FBC" fill-opacity="1.00" stroke="None">
<path d="
M 94.00 385.00 
C 88.19 379.19 81.60 373.06 76.00 367.00
C 81.19 373.57 88.07 379.07 94.00 385.00 Z"/>
</g>
<g fill="#9FBCDE" fill-opacity="1.00" stroke="None">
<path d="
M 113.00 404.00 
C 106.80 397.80 100.25 391.25 94.00 385.00
C 100.24 391.23 106.21 398.20 113.00 404.00 Z"/>
</g>
<g fill="#A6CAE6" fill-opacity="1.00" stroke="None">
<path d="
M 356.00 415.00 
C 353.50 418.79 350.48 422.16 348.00 426.00
C 351.81 421.63 355.54 417.75 359.00 413.00
C 360.43 411.04 361.67 409.02 363.00 407.00
C 360.88 409.58 358.15 412.39 356.00 415.00 Z"/>
</g>
<g fill="#A1BDE1" fill-opacity="1.00" stroke="None">
<path d="
M 164.00 454.00 
C 161.51 451.68 159.36 448.36 157.00 446.00
C 146.89 437.36 138.16 426.68 128.00 418.00
C 139.07 429.07 150.51 445.78 164.00 454.00 Z"/>
</g>
<g fill="#95B3D7" fill-opacity="1.00" stroke="None">
<path d="
M 312.00 464.00 
C 322.51 457.76 332.65 446.89 340.00 437.00
C 331.85 446.35 321.88 456.66 312.00 464.00 Z"/>
</g>
<g fill="#5D7EAC" fill-opacity="1.00" stroke="None">
<path d="
M 164.00 454.00 
C 164.61 454.37 165.36 454.61 166.00 455.00
C 163.06 452.06 160.24 448.77 157.00 446.00
C 159.36 448.36 161.51 451.68 164.00 454.00 Z"/>
</g>
<g fill="#C4DDF6" fill-opacity="1.00" stroke="None">
<path d="
M 256.00 484.00 
C 248.75 484.64 240.25 484.68 233.00 484.00
C 239.86 485.45 249.07 485.41 256.00 484.00 Z"/>
</g>
</svg>